<svg xmlns="http://www.w3.org/2000/svg" width="1200" height="630" viewBox="0 0 1200 630" role="img" aria-label="Habit Log – Offline-first habit tracker">
  <defs>
    <linearGradient id="g" x1="0" y1="0" x2="1" y2="1">
      <stop offset="0%" stop-color="#0b0b0d"/>
      <stop offset="100%" stop-color="#111214"/>
    </linearGradient>
  </defs>
  <rect width="1200" height="630" fill="url(#g)"/>
  <g transform="translate(120, 170)">
    <g transform="translate(0, 0)">
      <circle cx="60" cy="60" r="56" fill="none" stroke="#F3F4F6" stroke-width="10"/>
      <path d="M32 64l24 24 52-54" fill="none" stroke="#F3F4F6" stroke-width="10" stroke-linecap="round" stroke-linejoin="round"/>
    </g>
    <text x="150" y="50" font-family="ui-sans-serif, system-ui, -apple-system, Segoe UI, Roboto, Helvetica, Arial" font-size="64" fill="#F3F4F6" font-weight="700">Habit Log</text>
    <text x="150" y="110" font-family="ui-sans-serif, system-ui, -apple-system, Segoe UI, Roboto, Helvetica, Arial" font-size="28" fill="#9aa0a6">Offline-first habit tracking with streaks and insights.</text>
  </g>
  <g transform="translate(120, 260)">
    <rect x="0" y="0" width="960" height="220" rx="18" fill="#15171a" stroke="#2a2c2f"/>
    <g transform="translate(24, 24)">
      <rect x="0" y="0" width="220" height="60" rx="14" fill="#111214" stroke="#2a2c2f"/>
      <rect x="0" y="84" width="300" height="16" rx="8" fill="#2a2c2f"/>
      <rect x="0" y="110" width="260" height="16" rx="8" fill="#2a2c2f"/>
    </g>
    <g transform="translate(560, 24)">
      <text x="0" y="0" font-family="ui-sans-serif, system-ui" font-size="20" fill="#9aa0a6">This Week</text>
      <g transform="translate(0, 16)">
        <rect x="0" y="12" width="220" height="10" rx="5" fill="#2a2c2f"/>
        <rect x="0" y="34" width="160" height="10" rx="5" fill="#2a2c2f"/>
        <rect x="0" y="56" width="200" height="10" rx="5" fill="#2a2c2f"/>
        <rect x="0" y="78" width="80"  height="10" rx="5" fill="#2a2c2f"/>
      </g>
    </g>
  </g>
</svg>
